<svg class="w-6 h-6" width="32" height="32" viewBox="0 0 32 32" fill="[object Object]" xmlns="http://www.w3.org/2000/svg">
<path d="M24.7337 17.5774L15.6428 9.24407C15.4723 9.08779 15.2411 9 15 9C14.7589 9 14.5277 9.08779 14.3572 9.24407L5.26628 17.5774C5.13914 17.694 5.05255 17.8424 5.01747 18.0041C4.98239 18.1657 5.00039 18.3333 5.0692 18.4856C5.138 18.6379 5.25453 18.768 5.40403 18.8596C5.55353 18.9511 5.72929 19 5.9091 19H24.0909C24.2707 19 24.4465 18.9511 24.596 18.8596C24.7455 18.768 24.862 18.6379 24.9308 18.4856C24.9996 18.3333 25.0176 18.1657 24.9825 18.0041C24.9474 17.8424 24.8609 17.694 24.7337 17.5774Z" fill="[object Object]"/>
</svg>
